HIERARCHY
ROOT Hips
{
    OFFSET   0.000000   0.000000   0.000000
    CHANNELS 6 Xposition Yposition Zposition Zrotation Xrotation Yrotation
    JOINT Chest
    {
        OFFSET   0.000000   8.007240   0.000000
        CHANNELS 3 Zrotation Xrotation Yrotation
        JOINT Chest2
        {
            OFFSET   0.000000  22.077100   0.000000
            CHANNELS 3 Zrotation Xrotation Yrotation
            JOINT Neck
            {
                OFFSET   0.000000  23.254800   0.000000
                CHANNELS 3 Zrotation Xrotation Yrotation
                JOINT Head
                {
                    OFFSET   0.000000  14.370000   1.956600
                    CHANNELS 3 Zrotation Xrotation Yrotation
                    End Site
                    {
                        OFFSET   0.000000  19.566000   0.000000
                    }
                }
            }
            JOINT LeftCollar
            {
                OFFSET   3.911900  19.017000  -0.467064
                CHANNELS 3 Zrotation Xrotation Yrotation
                JOINT LeftShoulder
                {
                    OFFSET  10.383700   0.000000   0.000000
                    CHANNELS 3 Zrotation Xrotation Yrotation
                    JOINT LeftElbow
                    {
                        OFFSET  26.662100   0.001476   0.000517
                        CHANNELS 3 Zrotation Xrotation Yrotation
                        JOINT LeftWrist
                        {
                            OFFSET  28.869000  -0.000025  -0.000106
                            CHANNELS 3 Zrotation Xrotation Yrotation
                            JOINT LeftFinger0
                            {
                                OFFSET   2.044660  -2.323460   3.252850
                                CHANNELS 3 Zrotation Xrotation Yrotation
                                JOINT LeftFinger01
                                {
                                    OFFSET   3.088130   0.000000   0.000000
                                    CHANNELS 3 Zrotation Xrotation Yrotation
                                    JOINT LeftFinger02
                                    {
                                        OFFSET   2.639460   0.000000   0.000000
                                        CHANNELS 3 Zrotation Xrotation Yrotation
                                        End Site
                                        {
                                            OFFSET   2.582190   0.000000   0.000000
                                        }
                                    }
                                }
                            }
                            JOINT LeftFinger1
                            {
                                OFFSET   8.364480   0.000000   3.252850
                                CHANNELS 3 Zrotation Xrotation Yrotation
                                JOINT LeftFinger11
                                {
                                    OFFSET   4.646930   0.000000   0.000000
                                    CHANNELS 3 Zrotation Xrotation Yrotation
                                    JOINT LeftFinger12
                                    {
                                        OFFSET   2.323460   0.000000   0.000000
                                        CHANNELS 3 Zrotation Xrotation Yrotation
                                        End Site
                                        {
                                            OFFSET   2.273050   0.000000   0.000000
                                        }
                                    }
                                }
                            }
                            JOINT LeftFinger2
                            {
                                OFFSET   8.364490   0.000015   1.078090
                                CHANNELS 3 Zrotation Xrotation Yrotation
                                JOINT LeftFinger21
                                {
                                    OFFSET   5.111620   0.000000   0.000000
                                    CHANNELS 3 Zrotation Xrotation Yrotation
                                    JOINT LeftFinger22
                                    {
                                        OFFSET   2.788160   0.000016   0.000000
                                        CHANNELS 3 Zrotation Xrotation Yrotation
                                        End Site
                                        {
                                            OFFSET   2.727660   0.000000   0.000000
                                        }
                                    }
                                }
                            }
                            JOINT LeftFinger3
                            {
                                OFFSET   7.899780   0.000017  -1.078090
                                CHANNELS 3 Zrotation Xrotation Yrotation
                                JOINT LeftFinger31
                                {
                                    OFFSET   4.646930   0.000000   0.000000
                                    CHANNELS 3 Zrotation Xrotation Yrotation
                                    JOINT LeftFinger32
                                    {
                                        OFFSET   2.323470   0.000000   0.000000
                                        CHANNELS 3 Zrotation Xrotation Yrotation
                                        End Site
                                        {
                                            OFFSET   2.273050   0.000000   0.000000
                                        }
                                    }
                                }
                            }
                            JOINT LeftFinger4
                            {
                                OFFSET   7.435090   0.000000  -3.252850
                                CHANNELS 3 Zrotation Xrotation Yrotation
                                JOINT LeftFinger41
                                {
                                    OFFSET   3.717550   0.000000   0.000000
                                    CHANNELS 3 Zrotation Xrotation Yrotation
                                    JOINT LeftFinger42
                                    {
                                        OFFSET   1.858770   0.000000   0.000000
                                        CHANNELS 3 Zrotation Xrotation Yrotation
                                        End Site
                                        {
                                            OFFSET   1.818440   0.000000   0.000000
                                        }
                                    }
                                }
                            }
                        }
                    }
                }
            }
            JOINT RightCollar
            {
                OFFSET  -3.911900  19.017000  -0.467063
                CHANNELS 3 Zrotation Xrotation Yrotation
                JOINT RightShoulder
                {
                    OFFSET -10.383700   0.000019   0.000000
                    CHANNELS 3 Zrotation Xrotation Yrotation
                    JOINT RightElbow
                    {
                        OFFSET -26.662100   0.001175   0.000102
                        CHANNELS 3 Zrotation Xrotation Yrotation
                        JOINT RightWrist
                        {
                            OFFSET -28.869000   0.000016  -0.000079
                            CHANNELS 3 Zrotation Xrotation Yrotation
                            JOINT RightFinger0
                            {
                                OFFSET  -2.044660  -2.323490   3.252850
                                CHANNELS 3 Zrotation Xrotation Yrotation
                                JOINT RightFinger01
                                {
                                    OFFSET  -3.088140   0.000000   0.000000
                                    CHANNELS 3 Zrotation Xrotation Yrotation
                                    JOINT RightFinger02
                                    {
                                        OFFSET  -2.639460   0.000000   0.000000
                                        CHANNELS 3 Zrotation Xrotation Yrotation
                                        End Site
                                        {
                                            OFFSET  -2.582190   0.000000   0.000000
                                        }
                                    }
                                }
                            }
                            JOINT RightFinger1
                            {
                                OFFSET  -8.364480   0.000000   3.252850
                                CHANNELS 3 Zrotation Xrotation Yrotation
                                JOINT RightFinger11
                                {
                                    OFFSET  -4.646930   0.000000   0.000000
                                    CHANNELS 3 Zrotation Xrotation Yrotation
                                    JOINT RightFinger12
                                    {
                                        OFFSET  -2.323470   0.000000   0.000000
                                        CHANNELS 3 Zrotation Xrotation Yrotation
                                        End Site
                                        {
                                            OFFSET  -2.273050   0.000000   0.000000
                                        }
                                    }
                                }
                            }
                            JOINT RightFinger2
                            {
                                OFFSET  -8.364480   0.000000   1.078090
                                CHANNELS 3 Zrotation Xrotation Yrotation
                                JOINT RightFinger21
                                {
                                    OFFSET  -5.111620   0.000000   0.000000
                                    CHANNELS 3 Zrotation Xrotation Yrotation
                                    JOINT RightFinger22
                                    {
                                        OFFSET  -2.788160   0.000000   0.000000
                                        CHANNELS 3 Zrotation Xrotation Yrotation
                                        End Site
                                        {
                                            OFFSET  -2.727660   0.000000   0.000000
                                        }
                                    }
                                }
                            }
                            JOINT RightFinger3
                            {
                                OFFSET  -7.899780   0.000000  -1.078090
                                CHANNELS 3 Zrotation Xrotation Yrotation
                                JOINT RightFinger31
                                {
                                    OFFSET  -4.646930   0.000000   0.000000
                                    CHANNELS 3 Zrotation Xrotation Yrotation
                                    JOINT RightFinger32
                                    {
                                        OFFSET  -2.323470   0.000000   0.000000
                                        CHANNELS 3 Zrotation Xrotation Yrotation
                                        End Site
                                        {
                                            OFFSET  -2.273050   0.000000   0.000000
                                        }
                                    }
                                }
                            }
                            JOINT RightFinger4
                            {
                                OFFSET  -7.435090   0.000000  -3.252850
                                CHANNELS 3 Zrotation Xrotation Yrotation
                                JOINT RightFinger41
                                {
                                    OFFSET  -3.717550   0.000000   0.000000
                                    CHANNELS 3 Zrotation Xrotation Yrotation
                                    JOINT RightFinger42
                                    {
                                        OFFSET  -1.858770   0.000000   0.000000
                                        CHANNELS 3 Zrotation Xrotation Yrotation
                                        End Site
                                        {
                                            OFFSET  -1.818440   0.000000   0.000000
                                        }
                                    }
                                }
                            }
                        }
                    }
                }
            }
        }
    }
    JOINT LeftHip
    {
        OFFSET   9.783040   0.000000   0.000000
        CHANNELS 3 Zrotation Xrotation Yrotation
        JOINT LeftKnee
        {
            OFFSET   0.000032 -41.789100  -0.002222
            CHANNELS 3 Zrotation Xrotation Yrotation
            JOINT LeftAnkle
            {
                OFFSET   0.000087 -41.133200  -0.000135
                CHANNELS 3 Zrotation Xrotation Yrotation
                JOINT LeftToe
                {
                    OFFSET   0.000000  -6.358960  14.674500
                    CHANNELS 3 Zrotation Xrotation Yrotation
                    End Site
                    {
                        OFFSET   0.000000   0.000000   3.913200
                    }
                }
            }
        }
    }
    JOINT RightHip
    {
        OFFSET  -9.783040   0.000000   0.000000
        CHANNELS 3 Zrotation Xrotation Yrotation
        JOINT RightKnee
        {
            OFFSET   0.000047 -41.789100  -0.000896
            CHANNELS 3 Zrotation Xrotation Yrotation
            JOINT RightAnkle
            {
                OFFSET  -0.000117 -41.133300  -0.000248
                CHANNELS 3 Zrotation Xrotation Yrotation
                JOINT RightToe
                {
                    OFFSET   0.000000  -6.358970  14.674500
                    CHANNELS 3 Zrotation Xrotation Yrotation
                    End Site
                    {
                        OFFSET   0.000000   0.000000   3.913200
                    }
                }
            }
        }
    }
}
MOTION
Frames: 4
Frame Time:   0.016667
 -2.746260  89.498400  -1.178400  -3.430980 -12.647600 -12.092600   8.370570   9.938400  -7.446570  18.367000  18.569200 -16.638300  11.884200   0.844636  -0.177673  19.533700   1.493620  25.034400  -2.418420  -2.078510  -5.549300 -19.915300  19.632500 -111.011000  13.593300  -7.276020 -96.586500   5.166120  29.697900   9.506390  37.527500  17.431900 -57.390300 -18.920100  -0.001467   0.000274  -4.460060   0.004466   0.002296 -11.285800   2.492640 -12.293600  -9.455990   0.001434   0.001143  -6.619190   0.000998  -0.000000 -10.108400   2.218190 -12.248700 -10.346400   0.002921   0.000434  -6.890680   0.001319   0.003547  -7.945560   1.589410 -11.241100  -8.101360   0.002015   0.005640  -5.395500   0.002361  -0.000151  -8.688380   1.733810 -11.184600 -13.287600  -0.006179  -0.001240  -8.849560  -0.005135   0.004750   9.712710  -7.013200  11.657400  53.594600   4.438070  48.267000 -16.053000 -28.713200 120.651000 -61.151400  12.277100  60.627700 -45.710200  29.946800  63.188600  17.729200   0.001459  -0.001637   3.864560   0.004123  -0.002883   4.443410  -0.151629  -1.940600   3.637660   0.005814  -0.003958   2.546350   0.000948  -0.004348   2.994570  -0.353974  -6.732800   3.015290   0.004952  -0.002957   2.007700   0.011023  -0.004361   5.006590  -0.591003  -6.716210   5.041340   0.004887  -0.010219   3.357520   0.002411  -0.009022   8.507530  -1.200330  -7.975410  12.885700   0.006011  -0.002261   8.581860   0.002733  -0.007203   1.963700  16.027600   5.320960   1.442190   1.888990  11.711300  -3.963490  -2.991340   1.819060   0.000000   0.000000  -0.000000   2.278750   8.732020   0.495827  -0.403597   6.658270  -1.858370  -2.811240  -2.181640   5.671000   0.000000   0.000000  -0.000000
 -2.746010  89.498300  -1.171760  -3.449380 -12.662600 -12.119800   8.365050   9.942680  -7.451600  18.357600  18.577700 -16.648600  11.895000   0.858518  -0.180784  19.551500   1.517490  25.050300  -2.418940  -2.094240  -5.501150 -19.940000  19.685900 -111.000000  13.604400  -7.247290 -96.557800   5.060000  29.641300   9.714310  37.514800  17.408500 -57.376600 -18.906400  -0.001454   0.000319  -4.453200   0.004458   0.002294 -11.257400   2.501390 -12.367700  -9.432370   0.001441   0.001150  -6.602660   0.001020   0.000000 -10.093100   2.228830 -12.324400 -10.333800   0.002874   0.000395  -6.882290   0.001337   0.003512  -7.955090   1.599690 -11.297500  -8.113300   0.002024   0.005719  -5.403450   0.002419  -0.000142  -8.717060   1.738770 -11.164700 -13.331200  -0.006238  -0.001160  -8.878570  -0.005169   0.004871   9.736770  -7.003630  11.694700  53.614100   4.452110  48.245200 -16.052000 -28.787400 120.620000 -61.114300  12.218000  60.567900 -45.702300  29.942600  63.168900  17.743300   0.001455  -0.001614   3.871660   0.004189  -0.002883   4.450300  -0.153376  -1.951810   3.643320   0.005775  -0.003980   2.550320   0.000950  -0.004306   2.988240  -0.356053  -6.785690   3.009370   0.004930  -0.002980   2.003370   0.011105  -0.004377   4.998620  -0.594769  -6.769000   5.033810   0.004864  -0.010267   3.352500   0.002422  -0.009043   8.474660  -1.203600  -8.025590  12.838600   0.006007  -0.002262   8.550530   0.002739  -0.007213   1.967070  16.056200   5.306010   1.447770   1.889960  11.730700  -3.961580  -3.000120   1.839950   0.000000   0.000000   0.000000   2.290030   8.746520   0.489012  -0.406042   6.668890  -1.845980  -2.798200  -2.190780   5.689770   0.000000   0.000000   0.000000
 -2.745620  89.498200  -1.167760  -3.467810 -12.679500 -12.142400   8.356630   9.950320  -7.457290  18.343100  18.593100 -16.660600  11.911900   0.870640  -0.183583  19.579600   1.538310  25.071700  -2.414110  -2.110460  -5.447490 -19.967400  19.729900 -110.995000  13.612400  -7.197030 -96.535400   4.945230  29.654100   9.931050  37.468600  17.351900 -57.376900 -18.940700  -0.001449   0.000369  -4.470350   0.004463   0.002297 -11.245300   2.523750 -12.494000  -9.423970   0.001447   0.001165  -6.596780   0.001040   0.000000 -10.073100   2.242910 -12.424100 -10.317300   0.002828   0.000361  -6.871260   0.001354   0.003485  -7.939130   1.615770 -11.428500  -8.100820   0.002032   0.005789  -5.395140   0.002475  -0.000140  -8.714060   1.738750 -11.166000 -13.326800  -0.006299  -0.001087  -8.875620  -0.005199   0.004989   9.757910  -6.992290  11.728200  53.651900   4.452620  48.206400 -16.034400 -28.848000 120.624000 -61.068100  12.136900  60.489100 -45.789800  30.030100  63.187100  17.693400   0.001456  -0.001594   3.846700   0.004250  -0.002879   4.460030  -0.155704  -1.985570   3.651340   0.005734  -0.004011   2.555940   0.000950  -0.004274   2.990600  -0.358599  -6.832180   3.012080   0.004909  -0.003002   2.005030   0.011201  -0.004375   5.001730  -0.599165  -6.815370   5.037560   0.004844  -0.010320   3.355000   0.002430  -0.009086   8.462700  -1.207410  -8.065460  12.821700   0.006008  -0.002256   8.539240   0.002739  -0.007227   1.975000  16.087000   5.288240   1.450410   1.889640  11.748700  -3.960170  -3.007580   1.858850   0.000000   0.000000   0.000000   2.299010   8.759250   0.492032  -0.409178   6.684120  -1.832480  -2.773640  -2.205700   5.691020  -0.000000   0.000000  -0.000000
 -2.745290  89.498100  -1.166020  -3.485310 -12.697300 -12.159700   8.346320   9.959620  -7.463280  18.325200  18.612000 -16.673400  11.929100   0.885895  -0.187060  19.608400   1.564740  25.094400  -2.406170  -2.124570  -5.393300 -19.989500  19.770500 -110.994000  13.643400  -7.148070 -96.514000   4.838740  29.681200  10.122700  37.420000  17.291400 -57.386300 -18.975000  -0.001442   0.000420  -4.487500   0.004467   0.002301 -11.234000   2.548100 -12.615800  -9.421970   0.001451   0.001181  -6.595380   0.001061   0.000000 -10.053500   2.256910 -12.523000 -10.301200   0.002781   0.000331  -6.860580   0.001372   0.003457  -7.923200   1.631270 -11.559600  -8.088340   0.002038   0.005860  -5.386830   0.002531  -0.000138  -8.711050   1.738740 -11.167300 -13.322300  -0.006359  -0.001012  -8.872670  -0.005228   0.005104   9.777190  -6.979230  11.758300  53.691700   4.451730  48.161400 -16.010400 -28.896600 120.641000 -61.041900  12.054200  60.408300 -45.924200  30.128100  63.239500  17.617200   0.001458  -0.001574   3.808590   0.004311  -0.002876   4.473470  -0.158063  -2.019780   3.662400   0.005694  -0.004044   2.563680   0.000949  -0.004245   2.995430  -0.362964  -6.905550   3.017250   0.004890  -0.003026   2.008430   0.011294  -0.004373   5.011750  -0.606804  -6.888490   5.048210   0.004825  -0.010367   3.362100   0.002438  -0.009132   8.459830  -1.210560  -8.084290  12.818100   0.006010  -0.002251   8.536850   0.002739  -0.007241   1.986190  16.118300   5.269600   1.451060   1.888180  11.764100  -3.959080  -3.011150   1.875350   0.000000   0.000000  -0.000000   2.307510   8.766110   0.498155  -0.413743   6.706530  -1.816650  -2.740750  -2.227080   5.691270   0.000000   0.000000   0.000000
